<?xml version="1.0" encoding="utf-8"?>
<!-- Generator: Adobe Illustrator 22.0.1, SVG Export Plug-In . SVG Version: 6.00 Build 0)  -->
<svg version="1.1" xmlns="http://www.w3.org/2000/svg" xmlns:xlink="http://www.w3.org/1999/xlink" x="0px" y="0px"
	 viewBox="0 0 26.3 27" style="enable-background:new 0 0 26.3 27;" xml:space="preserve">
<style type="text/css">
	.st0{display:none;}
	.st1{display:inline;}
	.st2{fill-rule:evenodd;clip-rule:evenodd;fill:#005594;}
</style>
<g id="Слой_1">
</g>
<g id="Слой_2" class="st0">
	<g class="st1">
		<path class="st2" d="M13.7,11.3c-0.2-0.1-0.4-0.1-0.6-0.1c-1.2,0-2.2,1-2.2,2.2c0,1.2,1,2.2,2.2,2.2c1.2,0,2.2-1,2.2-2.2
			c0-0.2,0-0.4-0.1-0.6l6.2-6.2l1,0.1l3.1-3.1l-2.4-0.3L22.9,1l-3.1,3.1l0.1,1L13.7,11.3z"/>
		<path class="st2" d="M13.4,8.5l2.2-2.1C12.9,5.4,9.9,6,7.8,8.1c-3,3-3,7.7,0,10.7s7.7,3,10.7,0c2.1-2.1,2.7-5.1,1.8-7.8l-2.2,2.2
			c0.1,1.4-0.4,2.8-1.5,3.8c-2,2-5.1,2-7.1,0c-2-2-2-5.1,0-7.1C10.6,8.9,12,8.4,13.4,8.5z"/>
		<path class="st2" d="M22.2,9.2c1.8,3.7,1.1,8.3-2,11.3c-3.9,3.9-10.2,3.9-14.1,0c-3.9-3.9-3.9-10.2,0-14.1c3.1-3.1,7.6-3.7,11.3-2
			l2.1-2.1c-4.9-2.8-11.2-2.1-15.4,2c-5,5-5,13.1,0,18c5,5,13.1,5,18,0c4.2-4.2,4.8-10.5,2-15.4L22.2,9.2z"/>
	</g>
</g>
<g id="Слой_3">
	<g>
		<path class="st2" d="M7.2,23.6H3.4c-0.3,0-0.6-0.3-0.6-0.5v-4.9c0.8-0.1,1.6-0.4,2.1-1l2.8-2.8V23C7.7,23.3,7.5,23.6,7.2,23.6z"/>
		<path class="st2" d="M14,23.6h-3.8c-0.3,0-0.6-0.3-0.6-0.5v-8.7l2.6,2.6c0.6,0.6,1.4,1,2.3,1V23C14.6,23.3,14.3,23.6,14,23.6z"/>
		<path class="st2" d="M20.8,23.6H17c-0.3,0-0.6-0.3-0.6-0.5v-5.7c0.2-0.1,0.4-0.3,0.5-0.4l4.4-4.4V23
			C21.4,23.3,21.1,23.6,20.8,23.6z"/>
		<path class="st2" d="M2.6,16.3c-0.4,0-0.8-0.2-1.1-0.4l-0.3-0.3c-0.6-0.6-0.6-1.6,0-2.2l6.4-6.4c0.3-0.3,0.7-0.4,1.1-0.4
			c0.4,0,0.8,0.2,1.1,0.4l4.8,4.8l5-5c-0.3-0.3-0.6-0.6-0.9-0.9l-0.4-0.5c-0.2-0.2-0.5-0.5-0.3-1.1C18,4.1,18.1,4,18.2,3.9
			c0.3-0.3,0.6-0.3,0.8-0.3c1.8-0.1,3.5-0.2,5.3-0.3h0.1c0.4,0,0.6,0.1,0.8,0.3c0.2,0.2,0.3,0.5,0.3,0.8l-0.1,1.7
			c-0.1,1.2-0.1,2.3-0.2,3.5c0,0.3-0.1,0.6-0.3,0.9c-0.1,0.1-0.2,0.1-0.3,0.2c-0.2,0.1-0.3,0.1-0.4,0.1c-0.3,0-0.6-0.2-0.7-0.4
			l-1.4-1.4l-6.4,6.4C15.4,15.9,15,16,14.6,16c-0.4,0-0.8-0.2-1.1-0.4l-4.8-4.8l-5,5.1C3.4,16.1,3,16.3,2.6,16.3z"/>
	</g>
</g>
</svg>
