<?xml version="1.0" encoding="utf-8"?>
<!-- Generator: Adobe Illustrator 22.0.1, SVG Export Plug-In . SVG Version: 6.00 Build 0)  -->
<svg version="1.1" xmlns="http://www.w3.org/2000/svg" xmlns:xlink="http://www.w3.org/1999/xlink" x="0px" y="0px"
	 viewBox="0 0 26.3 27" style="enable-background:new 0 0 26.3 27;" xml:space="preserve">
<style type="text/css">
	.st0{display:none;}
	.st1{display:inline;}
	.st2{fill-rule:evenodd;clip-rule:evenodd;fill:#005594;}
</style>
<g id="Слой_1">
</g>
<g id="Слой_2" class="st0">
	<g class="st1">
		<path class="st2" d="M13.7,11.3c-0.2-0.1-0.4-0.1-0.6-0.1c-1.2,0-2.2,1-2.2,2.2c0,1.2,1,2.2,2.2,2.2c1.2,0,2.2-1,2.2-2.2
			c0-0.2,0-0.4-0.1-0.6l6.2-6.2l1,0.1l3.1-3.1l-2.4-0.3L22.9,1l-3.1,3.1l0.1,1L13.7,11.3z"/>
		<path class="st2" d="M13.4,8.5l2.2-2.1C12.9,5.4,9.9,6,7.8,8.1c-3,3-3,7.7,0,10.7s7.7,3,10.7,0c2.1-2.1,2.7-5.1,1.8-7.8l-2.2,2.2
			c0.1,1.4-0.4,2.8-1.5,3.8c-2,2-5.1,2-7.1,0c-2-2-2-5.1,0-7.1C10.6,8.9,12,8.4,13.4,8.5z"/>
		<path class="st2" d="M22.2,9.2c1.8,3.7,1.1,8.3-2,11.3c-3.9,3.9-10.2,3.9-14.1,0c-3.9-3.9-3.9-10.2,0-14.1c3.1-3.1,7.6-3.7,11.3-2
			l2.1-2.1c-4.9-2.8-11.2-2.1-15.4,2c-5,5-5,13.1,0,18c5,5,13.1,5,18,0c4.2-4.2,4.8-10.5,2-15.4L22.2,9.2z"/>
	</g>
</g>
<g id="Слой_3" class="st0">
	<g class="st1">
		<path class="st2" d="M7.2,23.6H3.4c-0.3,0-0.6-0.3-0.6-0.5v-4.9c0.8-0.1,1.6-0.4,2.1-1l2.8-2.8V23C7.7,23.3,7.5,23.6,7.2,23.6z"/>
		<path class="st2" d="M14,23.6h-3.8c-0.3,0-0.6-0.3-0.6-0.5v-8.7l2.6,2.6c0.6,0.6,1.4,1,2.3,1V23C14.6,23.3,14.3,23.6,14,23.6z"/>
		<path class="st2" d="M20.8,23.6H17c-0.3,0-0.6-0.3-0.6-0.5v-5.7c0.2-0.1,0.4-0.3,0.5-0.4l4.4-4.4V23
			C21.4,23.3,21.1,23.6,20.8,23.6z"/>
		<path class="st2" d="M2.6,16.3c-0.4,0-0.8-0.2-1.1-0.4l-0.3-0.3c-0.6-0.6-0.6-1.6,0-2.2l6.4-6.4c0.3-0.3,0.7-0.4,1.1-0.4
			c0.4,0,0.8,0.2,1.1,0.4l4.8,4.8l5-5c-0.3-0.3-0.6-0.6-0.9-0.9l-0.4-0.5c-0.2-0.2-0.5-0.5-0.3-1.1C18,4.1,18.1,4,18.2,3.9
			c0.3-0.3,0.6-0.3,0.8-0.3c1.8-0.1,3.5-0.2,5.3-0.3h0.1c0.4,0,0.6,0.1,0.8,0.3c0.2,0.2,0.3,0.5,0.3,0.8l-0.1,1.7
			c-0.1,1.2-0.1,2.3-0.2,3.5c0,0.3-0.1,0.6-0.3,0.9c-0.1,0.1-0.2,0.1-0.3,0.2c-0.2,0.1-0.3,0.1-0.4,0.1c-0.3,0-0.6-0.2-0.7-0.4
			l-1.4-1.4l-6.4,6.4C15.4,15.9,15,16,14.6,16c-0.4,0-0.8-0.2-1.1-0.4l-4.8-4.8l-5,5.1C3.4,16.1,3,16.3,2.6,16.3z"/>
	</g>
</g>
<g id="Слой_4" class="st0">
	<g class="st1">
		<path class="st2" d="M25.3,8.8l-1.3,0c-0.2-1-0.6-2-1.2-2.9L23.7,5c0.3-0.3,0.3-0.8,0-1.2l-0.9-0.9c-0.3-0.3-0.8-0.3-1.2,0
			l-0.9,0.9c-0.9-0.6-1.9-1-2.9-1.2l0-1.3c0-0.5-0.4-0.8-0.8-0.8l-1.3,0c-0.5,0-0.8,0.4-0.8,0.8l0,1.3c-1,0.2-2,0.6-3,1.2L11,2.9
			c-0.3-0.3-0.8-0.3-1.2,0L9,3.8C8.7,4.1,8.7,4.6,9,5l0.9,0.9c-0.6,0.8-1,1.7-1.2,2.7c1.1,0.1,2.3,0.3,3.3,0.8l0.2,0.1
			c0.2-0.8,0.6-1.5,1.2-2.1c1.7-1.7,4.4-1.7,6,0c1.7,1.7,1.6,4.4,0,6c-0.6,0.6-1.3,1-2.1,1.1l0.1,0.2c0.4,1.1,0.7,2.2,0.8,3.3
			c0.9-0.2,1.8-0.6,2.6-1.2l0.9,0.9c0.3,0.3,0.8,0.3,1.2,0l0.9-0.9c0.3-0.3,0.3-0.8,0-1.2l-0.9-0.9c0.6-0.9,1-1.9,1.2-2.9l1.3,0
			c0.5,0,0.8-0.4,0.8-0.8l0-1.3C26.1,9.2,25.7,8.8,25.3,8.8z"/>
		<path class="st2" d="M10.4,21.7C10,22.1,9.6,22.4,9,22.5c-0.2,0.1-0.3,0.2-0.3,0.4c0,0.2,0,0.5,0,0.7c0,0.2-0.1,0.3-0.3,0.3
			c-0.1,0-0.3,0-0.4,0c-0.1,0-0.2,0-0.4,0c-0.2,0-0.3-0.1-0.3-0.3c0-0.2,0-0.3,0-0.5c0-0.4,0-0.4-0.4-0.4c-0.5-0.1-0.9-0.2-1.3-0.4
			c-0.3-0.2-0.4-0.2-0.3-0.6c0.1-0.3,0.1-0.5,0.2-0.8c0.1-0.2,0.1-0.3,0.2-0.3c0.1,0,0.1,0,0.2,0.1c0.5,0.2,1,0.4,1.5,0.4l0.3,0
			c0.2,0,0.5,0,0.7-0.1c0.6-0.3,0.7-0.9,0.2-1.3c-0.2-0.1-0.4-0.2-0.6-0.3c-0.5-0.2-1-0.4-1.5-0.7c-0.8-0.5-1.3-1.1-1.2-2.1
			C5.4,15.6,6,14.9,7,14.5c0.4-0.1,0.4-0.1,0.4-0.6v-0.4c0-0.3,0.1-0.4,0.4-0.4h0.4c0.6,0,0.6,0,0.6,0.7c0,0.5,0,0.5,0.5,0.6
			c0.4,0.1,0.7,0.2,1.1,0.3c0.2,0.1,0.3,0.2,0.2,0.4c-0.1,0.3-0.2,0.6-0.3,0.9c-0.1,0.2-0.1,0.3-0.2,0.3c-0.1,0-0.1,0-0.2-0.1
			c-0.5-0.2-1-0.3-1.5-0.3l-0.2,0c-0.2,0-0.3,0-0.4,0.1c-0.5,0.2-0.6,0.8-0.2,1.1c0.2,0.2,0.5,0.3,0.7,0.4c0.4,0.2,0.9,0.4,1.3,0.6
			C10.9,18.8,11.3,20.5,10.4,21.7L10.4,21.7z M8.1,10.6c-4.4,0-7.9,3.5-7.9,7.9c0,4.4,3.5,7.9,7.9,7.9c4.4,0,7.9-3.5,7.9-7.9
			C16,14.2,12.4,10.6,8.1,10.6z"/>
	</g>
</g>
<g id="Слой_5">
	<g>
		<path class="st2" d="M2.9,22.6c-0.6,0-1-0.4-1-1c0-0.5,0.5-1,1-1s1,0.4,1,1C3.9,22.1,3.5,22.6,2.9,22.6L2.9,22.6z M24.9,16.6
			c-0.5,0-1.5,0.5-1.8,0.6c-1,0.5-2.3,1.3-3.2,1.9l-0.2,0.1c-0.4,0.3-0.8,0.4-1.3,0.5c-2.6,0.6-6.4,0.6-6.4,0.6l-0.2,0
			c-0.2,0-0.3-0.1-0.3-0.3c0-0.2,0.1-0.3,0.3-0.4l5.6-0.5c0.6-0.1,1.1-0.6,1-1.3c-0.1-0.7-0.7-1.1-1.3-1.1l-5-0.1
			c-0.3,0-0.9-0.1-1.2-0.2c-3.2-0.9-5-0.1-6,0.4c-0.2-0.4-0.6-0.6-1.1-0.6l-2.2,0.1c-0.7,0-1.3,0.6-1.2,1.3l0.3,4.8
			c0,0.7,0.7,1.2,1.4,1.2l2.2-0.1c0.5,0,0.8-0.3,1-0.7l9.5,0.4c1.1,0.1,2,0,3-0.5l0.3-0.1l7.2-4.2c0.4-0.2,0.6-0.6,0.6-1
			C25.8,17.2,25.6,16.6,24.9,16.6z"/>
		<path class="st2" d="M11.9,11.1c0.1-0.2,0.1-0.4,0.2-0.6c0.1-0.2,0.1-0.2,0.3-0.1c0.3,0.2,0.7,0.3,1.1,0.3c0.2,0,0.5,0,0.7-0.1
			c0.4-0.2,0.5-0.7,0.1-1c-0.1-0.1-0.3-0.2-0.4-0.2c-0.4-0.2-0.8-0.3-1.1-0.5c-0.6-0.3-0.9-0.8-0.9-1.5c0-0.8,0.5-1.3,1.2-1.5
			c0.3-0.1,0.3-0.1,0.3-0.4V5.2c0-0.2,0-0.3,0.3-0.3h0.2c0.5,0,0.5,0,0.5,0.5c0,0.3,0,0.3,0.3,0.4c0.3,0,0.5,0.1,0.8,0.2
			c0.1,0.1,0.2,0.2,0.1,0.3c-0.1,0.2-0.1,0.4-0.2,0.6c-0.1,0.2-0.1,0.2-0.3,0.1c-0.4-0.2-0.8-0.3-1.2-0.2c-0.1,0-0.2,0-0.3,0.1
			c-0.4,0.2-0.4,0.6-0.1,0.8C13.7,7.9,13.9,7.9,14,8c0.3,0.1,0.7,0.3,1,0.4c1,0.5,1.2,1.8,0.6,2.6c-0.3,0.3-0.6,0.5-1,0.6
			c-0.2,0-0.2,0.1-0.2,0.3c0,0.2,0,0.3,0,0.5c0,0.2-0.1,0.2-0.2,0.2c-0.2,0-0.4,0-0.5,0c-0.2,0-0.2-0.1-0.2-0.2c0-0.1,0-0.2,0-0.4
			c0-0.3,0-0.3-0.3-0.3c-0.3-0.1-0.7-0.1-1-0.3C11.9,11.4,11.9,11.3,11.9,11.1L11.9,11.1z M13.9,14.5c3.2,0,5.7-2.6,5.7-5.7
			c0-3.2-2.6-5.7-5.7-5.7c-3.2,0-5.7,2.6-5.7,5.7C8.2,12,10.8,14.5,13.9,14.5z"/>
	</g>
</g>
</svg>
