<?xml version="1.0" encoding="utf-8"?>
<!-- Generator: Adobe Illustrator 22.0.1, SVG Export Plug-In . SVG Version: 6.00 Build 0)  -->
<svg version="1.1" xmlns="http://www.w3.org/2000/svg" xmlns:xlink="http://www.w3.org/1999/xlink" x="0px" y="0px"
	 viewBox="0 0 34.7 41.9" style="enable-background:new 0 0 34.7 41.9; transform: rotate(180deg);" xml:space="preserve">
<style type="text/css">
	.st0{fill:#5179B1;}
	.st1{fill:#1C4177;}
</style>
<g id="Слой_1">
</g>
<g id="Слой_3">
	<path class="st0" d="M4,39.9l9.8-10.5c0,0,0.1-0.1,0.1-0.1l5.9-7.2c0.6-0.7,0.6-1.7,0-2.5l-6-7.1c0,0,0,0-0.1-0.1L3.9,1.9h10.1
		l16.8,18.9L14.1,39.9C14.1,39.9,4,39.9,4,39.9z"/>
</g>
<g id="Слой_2">
	<path class="st1" d="M1.5,38.1c-0.5,0.5-0.6,1.2-0.3,1.8c0.3,0.6,0.9,1,1.5,1h13.4c0.5,0,0.9-0.2,1.3-0.6L33.5,22
		c0.6-0.6,0.6-1.6,0-2.2L17.4,1.6C17,1.2,16.6,1,16.1,1H2.7C2,1,1.4,1.4,1.2,2C0.9,2.7,1,3.4,1.5,3.8l11.1,12l4.4,5.1l-4.3,5.2
		L1.5,38.1z M6.6,37.5l8.6-9.1c0,0,0.1-0.1,0.1-0.1l5.2-6.3c0.5-0.6,0.5-1.5,0-2.1l-5.3-6.2c0,0,0,0,0-0.1L6.5,4.4h8.8L30,20.9
		L15.4,37.5C15.4,37.5,6.6,37.5,6.6,37.5z"/>
</g>
</svg>
